<?xml version="1.0" encoding="UTF-8" standalone="no"?><svg xmlns="http://www.w3.org/2000/svg" xmlns:xlink="http://www.w3.org/1999/xlink" contentScriptType="application/ecmascript" contentStyleType="text/css" height="385px" preserveAspectRatio="none" style="width:405px;height:385px;" version="1.1" viewBox="0 0 405 385" width="405px" zoomAndPan="magnify"><defs><filter height="300%" id="f1fjfzfngxyc39" width="300%" x="-1" y="-1"><feGaussianBlur result="blurOut" stdDeviation="2.0"/><feColorMatrix in="blurOut" result="blurOut2" type="matrix" values="0 0 0 0 0 0 0 0 0 0 0 0 0 0 0 0 0 0 .4 0"/><feOffset dx="4.0" dy="4.0" in="blurOut2" result="blurOut3"/><feBlend in="SourceGraphic" in2="blurOut3" mode="normal"/></filter></defs><g><!--MD5=[b1e3d2dcb3697de9e6328d1cb436cbc4]
entity frontend--><rect fill="#FFFFFF" filter="url(#f1fjfzfngxyc39)" height="46.2969" style="stroke: #A80036; stroke-width: 1.5;" width="99" x="6" y="8"/><rect fill="#FFFFFF" height="10" style="stroke: #A80036; stroke-width: 1.5;" width="15" x="85" y="13"/><rect fill="#FFFFFF" height="2" style="stroke: #A80036; stroke-width: 1.5;" width="4" x="83" y="15"/><rect fill="#FFFFFF" height="2" style="stroke: #A80036; stroke-width: 1.5;" width="4" x="83" y="19"/><text fill="#000000" font-family="sans-serif" font-size="14" lengthAdjust="spacingAndGlyphs" textLength="59" x="21" y="40.9951">frontend</text><!--MD5=[fd2f3c0334b9635c2a48f5a2d6be6392]
entity usecases--><rect fill="#FFFFFF" filter="url(#f1fjfzfngxyc39)" height="46.2969" style="stroke: #A80036; stroke-width: 1.5;" width="107" x="166" y="114"/><rect fill="#FFFFFF" height="10" style="stroke: #A80036; stroke-width: 1.5;" width="15" x="253" y="119"/><rect fill="#FFFFFF" height="2" style="stroke: #A80036; stroke-width: 1.5;" width="4" x="251" y="121"/><rect fill="#FFFFFF" height="2" style="stroke: #A80036; stroke-width: 1.5;" width="4" x="251" y="125"/><text fill="#000000" font-family="sans-serif" font-size="14" lengthAdjust="spacingAndGlyphs" textLength="67" x="181" y="146.9951">usecases</text><!--MD5=[aa3b458352135463a5a0f2d2a48ef4d9]
entity models--><rect fill="#FFFFFF" filter="url(#f1fjfzfngxyc39)" height="46.2969" style="stroke: #A80036; stroke-width: 1.5;" width="91" x="303" y="226"/><rect fill="#FFFFFF" height="10" style="stroke: #A80036; stroke-width: 1.5;" width="15" x="374" y="231"/><rect fill="#FFFFFF" height="2" style="stroke: #A80036; stroke-width: 1.5;" width="4" x="372" y="233"/><rect fill="#FFFFFF" height="2" style="stroke: #A80036; stroke-width: 1.5;" width="4" x="372" y="237"/><text fill="#000000" font-family="sans-serif" font-size="14" lengthAdjust="spacingAndGlyphs" textLength="51" x="318" y="258.9951">models</text><!--MD5=[640691370ce4be42eed08cabdbe1b62b]
entity wsgi--><rect fill="#FEFECE" filter="url(#f1fjfzfngxyc39)" height="36.2969" style="stroke: #A80036; stroke-width: 1.5;" width="51" x="194" y="13"/><rect fill="#FEFECE" height="5" style="stroke: #A80036; stroke-width: 1.5;" width="10" x="189" y="18"/><rect fill="#FEFECE" height="5" style="stroke: #A80036; stroke-width: 1.5;" width="10" x="189" y="39.2969"/><text fill="#000000" font-family="sans-serif" font-size="14" lengthAdjust="spacingAndGlyphs" textLength="31" x="204" y="35.9951">wsgi</text><!--MD5=[96f7e1299d4a43069e6ed32352fcac20]
entity HTTP--><ellipse cx="149.5" cy="31" fill="#FEFECE" filter="url(#f1fjfzfngxyc39)" rx="8" ry="8" style="stroke: #A80036; stroke-width: 2.0;"/><text fill="#000000" font-family="sans-serif" font-size="14" lengthAdjust="spacingAndGlyphs" textLength="37" x="131" y="60.9951">HTTP</text><!--MD5=[6f400b993ef113f7997965bb1aa02216]
entity repositories--><rect fill="#FEFECE" filter="url(#f1fjfzfngxyc39)" height="36.2969" style="stroke: #A80036; stroke-width: 1.5;" width="102" x="49.5" y="338"/><rect fill="#FEFECE" height="5" style="stroke: #A80036; stroke-width: 1.5;" width="10" x="44.5" y="343"/><rect fill="#FEFECE" height="5" style="stroke: #A80036; stroke-width: 1.5;" width="10" x="44.5" y="364.2969"/><text fill="#000000" font-family="sans-serif" font-size="14" lengthAdjust="spacingAndGlyphs" textLength="82" x="59.5" y="360.9951">repositories</text><!--MD5=[8a4e1ce8d9673bd9e147467dd3148b5a]
entity repos--><ellipse cx="106.5" cy="249" fill="#FEFECE" filter="url(#f1fjfzfngxyc39)" rx="8" ry="8" style="stroke: #A80036; stroke-width: 2.0;"/><text fill="#000000" font-family="sans-serif" font-size="14" lengthAdjust="spacingAndGlyphs" textLength="40" x="86.5" y="278.9951">repos</text><!--MD5=[ce1c0195088fc6ead5c2a3aeac01380f]
entity external--><rect fill="#FEFECE" filter="url(#f1fjfzfngxyc39)" height="36.2969" style="stroke: #A80036; stroke-width: 1.5;" width="75" x="187" y="338"/><rect fill="#FEFECE" height="5" style="stroke: #A80036; stroke-width: 1.5;" width="10" x="182" y="343"/><rect fill="#FEFECE" height="5" style="stroke: #A80036; stroke-width: 1.5;" width="10" x="182" y="364.2969"/><text fill="#000000" font-family="sans-serif" font-size="14" lengthAdjust="spacingAndGlyphs" textLength="55" x="197" y="360.9951">external</text><!--MD5=[9fa03314552ee6652c4d1a3f581279f5]
entity notifications--><ellipse cx="218.5" cy="249" fill="#FEFECE" filter="url(#f1fjfzfngxyc39)" rx="8" ry="8" style="stroke: #A80036; stroke-width: 2.0;"/><text fill="#000000" font-family="sans-serif" font-size="14" lengthAdjust="spacingAndGlyphs" textLength="83" x="177" y="278.9951">notifications</text><!--MD5=[b293dbcf8322f0c8be3bc58d5bcbebea]
entity impl--><rect fill="#FEFECE" filter="url(#f1fjfzfngxyc39)" height="36.2969" style="stroke: #A80036; stroke-width: 1.5;" width="48" x="82.5" y="119"/><rect fill="#FEFECE" height="5" style="stroke: #A80036; stroke-width: 1.5;" width="10" x="77.5" y="124"/><rect fill="#FEFECE" height="5" style="stroke: #A80036; stroke-width: 1.5;" width="10" x="77.5" y="145.2969"/><text fill="#000000" font-family="sans-serif" font-size="14" lengthAdjust="spacingAndGlyphs" textLength="28" x="92.5" y="141.9951">impl</text><!--MD5=[b9b50280383f0d4f5e95cc9a5150afee]
link HTTP to wsgi--><path d="M158.52,31 C170.27,31 182.02,31 193.78,31 " fill="none" id="HTTP-wsgi" style="stroke: #A80036; stroke-width: 1.0;"/><!--MD5=[45492763890cc90bd75a80cb82b256d7]
link frontend to HTTP--><path d="M105.07,31 C113.46,31 121.85,31 130.24,31 " fill="none" id="frontend-&gt;HTTP" style="stroke: #A80036; stroke-width: 1.0;"/><path d="M137.4018,22.5428 A9,9 0 0 0 137.4018 39.4572" fill="none" style="stroke: #A80036; stroke-width: 1.5;"/><!--MD5=[23a352b9c5ea7de5ceb7a9fb10be22ff]
link wsgi to usecases--><path d="M219.5,49.17 C219.5,65.31 219.5,89.73 219.5,108.56 " fill="none" id="wsgi-&gt;usecases" style="stroke: #A80036; stroke-width: 1.0;"/><polygon fill="#A80036" points="219.5,113.72,223.5,104.72,219.5,108.72,215.5,104.72,219.5,113.72" style="stroke: #A80036; stroke-width: 1.0;"/><!--MD5=[7cef713444ca3d688600f4056aef342e]
link usecases to models--><path d="M245.61,160.26 C266.67,178.23 296.34,203.52 318.41,222.34 " fill="none" id="usecases-&gt;models" style="stroke: #A80036; stroke-width: 1.0;"/><polygon fill="#A80036" points="322.43,225.77,318.1806,216.8851,318.6267,222.5243,312.9874,222.9704,322.43,225.77" style="stroke: #A80036; stroke-width: 1.0;"/><!--MD5=[f5ea97c0cde7228fbb42fd9e00d670a7]
link repos to repositories--><path d="M106.03,258.24 C105.05,275.35 102.78,315.06 101.48,337.93 " fill="none" id="repos-repositories" style="stroke: #A80036; stroke-width: 1.0;"/><!--MD5=[ae1514361370bdb0a36a19399beae3e2]
link notifications to external--><path d="M218.97,258.24 C219.95,275.35 222.22,315.06 223.52,337.93 " fill="none" id="notifications-external" style="stroke: #A80036; stroke-width: 1.0;"/><!--MD5=[d6cc7d6e2264f06a9b805557c34752f6]
link impl to repos--><path d="M106.5,155.19 C106.5,172.38 106.5,199.12 106.5,219.5 " fill="none" id="impl-&gt;repos" style="stroke: #A80036; stroke-width: 1.0;"/><polygon fill="none" points="113.5,219.82,106.5,239.82,99.5,219.82,113.5,219.82" style="stroke: #A80036; stroke-width: 1.0;"/><!--MD5=[e9e6ec191ad691e70ca50484fd1495bb]
link impl to notifications--><path d="M124,155.19 C143.32,174.16 174.49,204.78 195.71,225.62 " fill="none" id="impl-&gt;notifications" style="stroke: #A80036; stroke-width: 1.0;"/><polygon fill="none" points="200.81,220.81,210.17,239.82,191,230.8,200.81,220.81" style="stroke: #A80036; stroke-width: 1.0;"/><!--MD5=[b98a4fdae06d64b058520d219d563857]
link usecases to repos--><path d="M196.63,160.26 C174.51,181.79 141.58,213.85 122.25,232.67 " fill="none" id="usecases-&gt;repos" style="stroke: #A80036; stroke-width: 1.0;"/><path d="M122.9722,243.7785 A9,9 0 0 0 111.1822 231.6503" fill="none" style="stroke: #A80036; stroke-width: 1.5;"/><!--MD5=[e0bfe5938d2c4250df82a2f44ce5a52e]
link usecases to notifications--><path d="M219.3,160.26 C219.11,180.74 218.84,210.73 218.67,229.81 " fill="none" id="usecases-&gt;notifications" style="stroke: #A80036; stroke-width: 1.0;"/><path d="M227.0576,236.8667 A9,9 0 0 0 210.144 236.6973" fill="none" style="stroke: #A80036; stroke-width: 1.5;"/><!--MD5=[c90c9e83e9988a8b7ef58a7a42907f56]
@startuml components

component frontend {

}




[wsgi] -left- HTTP

frontend -right-( HTTP

wsgi - -> usecases

component usecases {

}


component models {

}

usecases - -> models

[repositories] -u- repos




[external] -u- notifications

[impl] - -|> repos

[impl] - -|> notifications

usecases - -( repos
usecases - -( notifications



@enduml

PlantUML version 1.2020.02(Sun Mar 01 10:22:07 GMT 2020)
(GPL source distribution)
Java Runtime: OpenJDK Runtime Environment
JVM: OpenJDK 64-Bit Server VM
Java Version: 11.0.9+11-Ubuntu-0ubuntu1
Operating System: Linux
Default Encoding: ANSI_X3.4-1968
Language: en
Country: US
--></g></svg>