<?xml version="1.0" encoding="UTF-8" standalone="no"?><svg xmlns="http://www.w3.org/2000/svg" xmlns:xlink="http://www.w3.org/1999/xlink" contentScriptType="application/ecmascript" contentStyleType="text/css" height="1021px" preserveAspectRatio="none" style="width:1188px;height:1021px;" version="1.1" viewBox="0 0 1188 1021" width="1188px" zoomAndPan="magnify"><defs><filter height="300%" id="fihezrpdlc8mo" width="300%" x="-1" y="-1"><feGaussianBlur result="blurOut" stdDeviation="2.0"/><feColorMatrix in="blurOut" result="blurOut2" type="matrix" values="0 0 0 0 0 0 0 0 0 0 0 0 0 0 0 0 0 0 .4 0"/><feOffset dx="4.0" dy="4.0" in="blurOut2" result="blurOut3"/><feBlend in="SourceGraphic" in2="blurOut3" mode="normal"/></filter></defs><g><!--MD5=[979da56a7f83e2393dc758167ae295d0]
cluster Server--><polygon fill="#FFFFFF" filter="url(#fihezrpdlc8mo)" points="468,34.5,478,24.5,1166,24.5,1166,999,1156,1009,468,1009,468,34.5" style="stroke: #000000; stroke-width: 1.5;"/><line style="stroke: #000000; stroke-width: 1.5;" x1="1156" x2="1165" y1="34.5" y2="25.5"/><line style="stroke: #000000; stroke-width: 1.5;" x1="468" x2="1156" y1="34.5" y2="34.5"/><line style="stroke: #000000; stroke-width: 1.5;" x1="1156" x2="1156" y1="34.5" y2="1009"/><text fill="#000000" font-family="sans-serif" font-size="14" font-weight="bold" lengthAdjust="spacingAndGlyphs" textLength="53" x="786.5" y="50.4951">Server</text><!--MD5=[2b81a4f0dde58f64175bd85480babfd4]
cluster docker-compose--><rect fill="#FFFFFF" filter="url(#fihezrpdlc8mo)" height="912.5" style="stroke: #000000; stroke-width: 1.5;" width="650" x="492" y="72.5"/><path d="M635,73.5 L635,81.7969 L625,91.7969 L492,91.7969 " fill="none" style="stroke: #000000; stroke-width: 1.5;"/><text fill="#000000" font-family="sans-serif" font-size="14" font-weight="bold" lengthAdjust="spacingAndGlyphs" textLength="133" x="495" y="86.4951">docker-compose</text><!--MD5=[c6a051c306b57d14ea0179a396d844b0]
cluster root_r--><rect fill="#FFFFFF" filter="url(#fihezrpdlc8mo)" height="113" style="stroke: #000000; stroke-width: 1.5;" width="150" x="524" y="628.5"/><text fill="#000000" font-family="sans-serif" font-size="14" font-weight="bold" lengthAdjust="spacingAndGlyphs" textLength="88" x="555" y="643.4951">root router</text><!--MD5=[23cbaadc18b1780d966e07254adaec4d]
cluster frontend--><rect fill="#FFFFFF" filter="url(#fihezrpdlc8mo)" height="123" style="stroke: #000000; stroke-width: 1.5;" width="257" x="540" y="830"/><text fill="#000000" font-family="sans-serif" font-size="14" font-weight="bold" lengthAdjust="spacingAndGlyphs" textLength="69" x="634" y="844.9951">frontend</text><!--MD5=[ba6a2dd34cdd7ccd60463fe02acd7d77]
cluster group1--><!--MD5=[47c14c564e796a575e671c2b0469a7bb]
cluster backend--><rect fill="#FFFFFF" filter="url(#fihezrpdlc8mo)" height="130" style="stroke: #000000; stroke-width: 1.5;" width="186" x="654" y="367"/><text fill="#000000" font-family="sans-serif" font-size="14" font-weight="bold" lengthAdjust="spacingAndGlyphs" textLength="67" x="713.5" y="381.9951">backend</text><!--MD5=[7c71e0bc9db3ca8e8d7a64e674349866]
cluster blob--><rect fill="#FFFFFF" filter="url(#fihezrpdlc8mo)" height="112" style="stroke: #000000; stroke-width: 1.5;" width="130" x="654" y="166.5"/><text fill="#000000" font-family="sans-serif" font-size="14" font-weight="bold" lengthAdjust="spacingAndGlyphs" textLength="100" x="669" y="181.4951">blob storage</text><!--MD5=[e83a682cd12f32d641d2fc82505f6ba8]
cluster group2--><!--MD5=[06f5f91432fc6eeeff022c01cc1dd901]
cluster q--><rect fill="#FFFFFF" filter="url(#fihezrpdlc8mo)" height="93" style="stroke: #000000; stroke-width: 1.5;" width="154" x="738" y="638.5"/><text fill="#000000" font-family="sans-serif" font-size="14" font-weight="bold" lengthAdjust="spacingAndGlyphs" textLength="50" x="790" y="653.4951">queue</text><!--MD5=[db65ce44d5e360fb4ec835f941dc7573]
cluster database--><rect fill="#FFFFFF" filter="url(#fihezrpdlc8mo)" height="112" style="stroke: #000000; stroke-width: 1.5;" width="154" x="932" y="629"/><text fill="#000000" font-family="sans-serif" font-size="14" font-weight="bold" lengthAdjust="spacingAndGlyphs" textLength="72" x="973" y="643.9951">database</text><!--MD5=[d26a03b031fcc4b23cd12724812f0dfd]
cluster notifications--><rect fill="#FFFFFF" filter="url(#fihezrpdlc8mo)" height="130" style="stroke: #000000; stroke-width: 1.5;" width="196" x="909" y="367"/><text fill="#000000" font-family="sans-serif" font-size="14" font-weight="bold" lengthAdjust="spacingAndGlyphs" textLength="97" x="958.5" y="381.9951">notifications</text><!--MD5=[76d471af32bf08693cca794e892084ac]
cluster device_group--><!--MD5=[779bdc9ef3a6b365282b55e74be4effd]
cluster android--><polygon fill="#FFFFFF" filter="url(#fihezrpdlc8mo)" points="54,380.5,64,370.5,222,370.5,222,478.5,212,488.5,54,488.5,54,380.5" style="stroke: #000000; stroke-width: 1.5;"/><line style="stroke: #000000; stroke-width: 1.5;" x1="212" x2="221" y1="380.5" y2="371.5"/><line style="stroke: #000000; stroke-width: 1.5;" x1="54" x2="212" y1="380.5" y2="380.5"/><line style="stroke: #000000; stroke-width: 1.5;" x1="212" x2="212" y1="380.5" y2="488.5"/><text fill="#000000" font-family="sans-serif" font-size="14" font-weight="bold" lengthAdjust="spacingAndGlyphs" textLength="62" x="103" y="396.4951">Android</text><!--MD5=[6c47afc467d900221e3d910201e783b5]
cluster ios--><polygon fill="#FFFFFF" filter="url(#fihezrpdlc8mo)" points="262,380.5,272,370.5,412,370.5,412,478.5,402,488.5,262,488.5,262,380.5" style="stroke: #000000; stroke-width: 1.5;"/><line style="stroke: #000000; stroke-width: 1.5;" x1="402" x2="411" y1="380.5" y2="371.5"/><line style="stroke: #000000; stroke-width: 1.5;" x1="262" x2="402" y1="380.5" y2="380.5"/><line style="stroke: #000000; stroke-width: 1.5;" x1="402" x2="402" y1="380.5" y2="488.5"/><text fill="#000000" font-family="sans-serif" font-size="14" font-weight="bold" lengthAdjust="spacingAndGlyphs" textLength="26" x="320" y="396.4951">IOS</text><!--MD5=[eab4eb7d0ef44c19c3b4c8ba4c3c2b5b]
entity root--><rect fill="#FFFFFF" filter="url(#fihezrpdlc8mo)" height="46.2969" style="stroke: #A80036; stroke-width: 1.5;" width="77" x="572.5" y="671.5"/><rect fill="#FFFFFF" height="10" style="stroke: #A80036; stroke-width: 1.5;" width="15" x="629.5" y="676.5"/><rect fill="#FFFFFF" height="2" style="stroke: #A80036; stroke-width: 1.5;" width="4" x="627.5" y="678.5"/><rect fill="#FFFFFF" height="2" style="stroke: #A80036; stroke-width: 1.5;" width="4" x="627.5" y="682.5"/><text fill="#000000" font-family="sans-serif" font-size="14" lengthAdjust="spacingAndGlyphs" textLength="37" x="587.5" y="704.4951">nginx</text><!--MD5=[2e097bb411287f6ed1a33ac9cb2c3661]
entity n2--><rect fill="#FFFFFF" filter="url(#fihezrpdlc8mo)" height="46.2969" style="stroke: #A80036; stroke-width: 1.5;" width="77" x="695.5" y="878"/><rect fill="#FFFFFF" height="10" style="stroke: #A80036; stroke-width: 1.5;" width="15" x="752.5" y="883"/><rect fill="#FFFFFF" height="2" style="stroke: #A80036; stroke-width: 1.5;" width="4" x="750.5" y="885"/><rect fill="#FFFFFF" height="2" style="stroke: #A80036; stroke-width: 1.5;" width="4" x="750.5" y="889"/><text fill="#000000" font-family="sans-serif" font-size="14" lengthAdjust="spacingAndGlyphs" textLength="37" x="710.5" y="910.9951">nginx</text><!--MD5=[919189777b3f5bf61b4ba1d663898d51]
entity static--><polygon fill="#FFFFFF" filter="url(#fihezrpdlc8mo)" points="588.5,873,634.5,873,641.5,894,655.5,894,655.5,928.5938,588.5,928.5938,588.5,873" style="stroke: #000000; stroke-width: 1.5;"/><line style="stroke: #000000; stroke-width: 1.5;" x1="588.5" x2="641.5" y1="894" y2="894"/><text fill="#000000" font-family="sans-serif" font-size="14" lengthAdjust="spacingAndGlyphs" textLength="37" x="598.5" y="913.9951">static</text><!--MD5=[0aacab4354088264634b57b319ebdd40]
entity api_server--><rect fill="#FEFECE" filter="url(#fihezrpdlc8mo)" height="62.5938" style="stroke: #A80036; stroke-width: 1.5;" width="114" x="702" y="410"/><rect fill="#FEFECE" height="10" style="stroke: #A80036; stroke-width: 1.5;" width="15" x="796" y="415"/><rect fill="#FEFECE" height="2" style="stroke: #A80036; stroke-width: 1.5;" width="4" x="794" y="417"/><rect fill="#FEFECE" height="2" style="stroke: #A80036; stroke-width: 1.5;" width="4" x="794" y="421"/><text fill="#000000" font-family="sans-serif" font-size="14" lengthAdjust="spacingAndGlyphs" textLength="45" x="717" y="442.9951">fastapi</text><text fill="#000000" font-family="sans-serif" font-size="14" lengthAdjust="spacingAndGlyphs" textLength="74" x="717" y="459.292">application</text><!--MD5=[dd69d516781b0f0936e849bb07507e10]
entity minio--><path d="M702.5,219.5 C702.5,209.5 731,209.5 731,209.5 C731,209.5 759.5,209.5 759.5,219.5 L759.5,244.7969 C759.5,254.7969 731,254.7969 731,254.7969 C731,254.7969 702.5,254.7969 702.5,244.7969 L702.5,219.5 " fill="#FEFECE" filter="url(#fihezrpdlc8mo)" style="stroke: #000000; stroke-width: 1.5;"/><path d="M702.5,219.5 C702.5,229.5 731,229.5 731,229.5 C731,229.5 759.5,229.5 759.5,219.5 " fill="none" style="stroke: #000000; stroke-width: 1.5;"/><text fill="#000000" font-family="sans-serif" font-size="14" lengthAdjust="spacingAndGlyphs" textLength="37" x="712.5" y="246.4951">minio</text><!--MD5=[799e9543975076390d2a6ceafec8df6c]
entity queue--><path d="M791.5,681.5 L862.5,681.5 C867.5,681.5 867.5,694.6484 867.5,694.6484 C867.5,694.6484 867.5,707.7969 862.5,707.7969 L791.5,707.7969 C786.5,707.7969 786.5,694.6484 786.5,694.6484 C786.5,694.6484 786.5,681.5 791.5,681.5 " fill="#FFFFFF" filter="url(#fihezrpdlc8mo)" style="stroke: #A80036; stroke-width: 1.5;"/><path d="M862.5,681.5 C857.5,681.5 857.5,694.6484 857.5,694.6484 C857.5,707.7969 862.5,707.7969 862.5,707.7969 " fill="none" style="stroke: #A80036; stroke-width: 1.5;"/><text fill="#000000" font-family="sans-serif" font-size="14" lengthAdjust="spacingAndGlyphs" textLength="61" x="791.5" y="699.4951">rabbitmq</text><!--MD5=[0e1fecc31e3549f2a1667c6349b56d9e]
entity postgres--><path d="M980,682 C980,672 1021,672 1021,672 C1021,672 1062,672 1062,682 L1062,707.2969 C1062,717.2969 1021,717.2969 1021,717.2969 C1021,717.2969 980,717.2969 980,707.2969 L980,682 " fill="#FEFECE" filter="url(#fihezrpdlc8mo)" style="stroke: #000000; stroke-width: 1.5;"/><path d="M980,682 C980,692 1021,692 1021,692 C1021,692 1062,692 1062,682 " fill="none" style="stroke: #000000; stroke-width: 1.5;"/><text fill="#000000" font-family="sans-serif" font-size="14" lengthAdjust="spacingAndGlyphs" textLength="62" x="990" y="708.9951">postgres</text><!--MD5=[5afec40478bd2c44543bda9262cdccd2]
entity ns--><rect fill="#FEFECE" filter="url(#fihezrpdlc8mo)" height="62.5938" style="stroke: #A80036; stroke-width: 1.5;" width="124" x="957" y="410"/><rect fill="#FEFECE" height="10" style="stroke: #A80036; stroke-width: 1.5;" width="15" x="1061" y="415"/><rect fill="#FEFECE" height="2" style="stroke: #A80036; stroke-width: 1.5;" width="4" x="1059" y="417"/><rect fill="#FEFECE" height="2" style="stroke: #A80036; stroke-width: 1.5;" width="4" x="1059" y="421"/><text fill="#000000" font-family="sans-serif" font-size="14" lengthAdjust="spacingAndGlyphs" textLength="84" x="972" y="442.9951">Notifications</text><text fill="#000000" font-family="sans-serif" font-size="14" lengthAdjust="spacingAndGlyphs" textLength="50" x="972" y="459.292">Service</text><!--MD5=[93504fff7c908e0a89da66548cc69c2f]
entity Chrome--><rect fill="#FFFFFF" filter="url(#fihezrpdlc8mo)" height="46.2969" style="stroke: #A80036; stroke-width: 1.5;" width="95" x="102.5" y="418.5"/><rect fill="#FFFFFF" height="10" style="stroke: #A80036; stroke-width: 1.5;" width="15" x="177.5" y="423.5"/><rect fill="#FFFFFF" height="2" style="stroke: #A80036; stroke-width: 1.5;" width="4" x="175.5" y="425.5"/><rect fill="#FFFFFF" height="2" style="stroke: #A80036; stroke-width: 1.5;" width="4" x="175.5" y="429.5"/><text fill="#000000" font-family="sans-serif" font-size="14" lengthAdjust="spacingAndGlyphs" textLength="55" x="117.5" y="451.4951">Chrome</text><!--MD5=[1188d3c89c7ba537cafd8ddf81bc6d2c]
entity Safari--><rect fill="#FFFFFF" filter="url(#fihezrpdlc8mo)" height="46.2969" style="stroke: #A80036; stroke-width: 1.5;" width="77" x="310.5" y="418.5"/><rect fill="#FFFFFF" height="10" style="stroke: #A80036; stroke-width: 1.5;" width="15" x="367.5" y="423.5"/><rect fill="#FFFFFF" height="2" style="stroke: #A80036; stroke-width: 1.5;" width="4" x="365.5" y="425.5"/><rect fill="#FFFFFF" height="2" style="stroke: #A80036; stroke-width: 1.5;" width="4" x="365.5" y="429.5"/><text fill="#000000" font-family="sans-serif" font-size="14" lengthAdjust="spacingAndGlyphs" textLength="37" x="325.5" y="451.4951">Safari</text><!--MD5=[476bda8b222e2121bbaa873cc42d89f0]
reverse link backend to root_r--><path d="M653.9618,476.5948 C653.9163,476.7433 653.8706,476.8922 653.8246,477.0413 C653.7327,477.3394 653.6399,477.6386 653.5463,477.9388 C647.55,497.1475 637.87,520.3 623,537 C607.78,554.09 598.94,552.79 578,562 C567.71,566.53 561.35,561.49 554,570 C545.03,580.38 539.1425,593.1306 535.3636,606.4564 C533.4741,613.1193 532.1118,619.926 531.1549,626.652 C531.0951,627.0724 531.0369,627.4925 530.9802,627.9121 " fill="none" id="backend&lt;-root_r" style="stroke: #A80036; stroke-width: 1.0;"/><polygon fill="#A80036" points="653.9618,476.5948,647.5017,484.0289,652.4977,481.3756,655.151,486.3716,653.9618,476.5948" style="stroke: #A80036; stroke-width: 1.0;"/><text fill="#000000" font-family="sans-serif" font-size="13" lengthAdjust="spacingAndGlyphs" textLength="23" x="615" y="558.0669">/api</text><!--MD5=[77d7fc9632e5542c55f6a6d35a57a75e]
link root_r to frontend--><path d="M535.6,741.5067 C535.6258,741.8361 535.6516,742.1666 535.6776,742.4982 C535.7295,743.1615 535.7817,743.8292 535.8343,744.5012 C536.255,749.877 536.697,755.5252 537.1532,761.3549 C538.0655,773.0144 539.0347,785.4 540.0038,797.785 C540.4883,803.9775 540.9728,810.1698 541.4502,816.2712 C541.6889,819.3219 541.9258,822.3498 542.16,825.3436 C542.2771,826.8405 542.3936,828.3289 542.5093,829.8073 " fill="none" id="root_r-&gt;frontend" style="stroke: #A80036; stroke-width: 1.0;"/><polygon fill="#A80036" points="542.5093,829.8073,545.7951,820.5227,542.1193,824.8225,537.8194,821.1467,542.5093,829.8073" style="stroke: #A80036; stroke-width: 1.0;"/><text fill="#000000" font-family="sans-serif" font-size="13" lengthAdjust="spacingAndGlyphs" textLength="71" x="541" y="802.0669">/index.html</text><!--MD5=[345ab31b54d501365c7163f8036096c4]
reverse link blob to root_r--><path d="M653.9532,240.1221 C653.882,240.1877 653.8104,240.2537 653.7385,240.3201 C653.5945,240.4529 653.4491,240.5874 653.3022,240.7234 C648.6012,245.0775 642.3963,251.0863 635.71,258.265 C622.3375,272.6225 607.04,291.66 598,311.5 C562.84,388.67 546.3025,482.415 538.5738,557.725 C536.6416,576.5525 535.2599,594.2278 534.2755,610.2039 C534.0294,614.1979 533.8081,618.0858 533.6092,621.8588 C533.5098,623.7454 533.416,625.6032 533.3275,627.4313 " fill="none" id="blob&lt;-root_r" style="stroke: #A80036; stroke-width: 1.0;"/><polygon fill="#A80036" points="653.9532,240.1221,644.6234,243.2772,650.2755,243.5095,650.0432,249.1616,653.9532,240.1221" style="stroke: #A80036; stroke-width: 1.0;"/><text fill="#000000" font-family="sans-serif" font-size="13" lengthAdjust="spacingAndGlyphs" textLength="44" x="599" y="446.0669">/media</text><!--MD5=[ae8f8d2604f46f9c0f01e6ef0c8773df]
link backend to database--><path d="M663.8322,497.3153 C663.8667,497.4769 663.9017,497.6386 663.9369,497.8002 C664.0075,498.1235 664.0794,498.4467 664.1527,498.7699 C664.4461,500.0624 664.7621,501.3536 665.1022,502.6403 C665.7823,505.2138 666.5588,507.7698 667.4434,510.2848 C670.9819,520.345 676.25,529.75 684,537 C700.61,552.54 868.04,556.05 886,570 C909.29,588.085 922.735,618.285 930.3838,644.2938 C930.8618,645.9193 931.3172,647.5285 931.751,649.1173 C931.8052,649.3159 931.8591,649.5142 931.9126,649.7121 " fill="none" id="backend-&gt;database" style="stroke: #A80036; stroke-width: 1.0;"/><polygon fill="#A80036" points="931.9126,649.7121,933.424,639.9799,930.6071,644.8856,925.7015,642.0687,931.9126,649.7121" style="stroke: #A80036; stroke-width: 1.0;"/><!--MD5=[08c2c4e66529e57f84ea015839d1c83e]
link backend to q--><path d="M673.2633,497.1242 C673.3392,497.4452 673.4154,497.7667 673.492,498.0885 C674.1042,500.6637 674.7362,503.2668 675.3866,505.8834 C677.9881,516.35 680.885,527.0325 684,537 C694.985,572.145 710.175,610.605 722.77,640.6038 C725.9188,648.1034 728.9053,655.0743 731.6234,661.3323 C732.9825,664.4613 734.2745,667.4121 735.486,670.1617 C736.0918,671.5365 736.6775,672.861 737.2414,674.1324 C737.3824,674.4502 737.522,674.7647 737.6602,675.0758 C737.7294,675.2314 737.7981,675.3861 737.8666,675.54 " fill="none" id="backend-q" style="stroke: #A80036; stroke-width: 1.0;"/><polygon fill="#A80036" points="737.8666,675.54,737.8649,665.6911,735.8351,670.9713,730.555,668.9415,737.8666,675.54" style="stroke: #A80036; stroke-width: 1.0;"/><polygon fill="#A80036" points="673.2633,497.1242,671.4422,506.8033,674.4141,501.99,679.2274,504.9619,673.2633,497.1242" style="stroke: #A80036; stroke-width: 1.0;"/><!--MD5=[cd40b28d8fa59460f519ecbd2d235e56]
reverse link blob to backend--><path d="M662,278.6851 C662,280.0128 662,281.3592 662,282.7229 C662,288.1776 662,293.9086 662,299.8238 C662,311.6542 662,324.2213 662,336.7875 C662,343.0706 662,349.3536 662,355.5441 C662,358.6394 662,361.7116 662,364.7491 C662,365.1288 662,365.508 662,365.8866 C662,366.0759 662,366.265 662,366.4541 " fill="none" id="blob&lt;-backend" style="stroke: #A80036; stroke-width: 1.0;"/><polygon fill="#A80036" points="662,278.6851,658,287.6851,662,283.6851,666,287.6851,662,278.6851" style="stroke: #A80036; stroke-width: 1.0;"/><!--MD5=[377f17b81961ac8afad28373bf22acfd]
link notifications to q--><path d="M908.7849,454.5615 C908.494,454.9738 908.1961,455.3947 907.8913,455.824 C907.2818,456.6824 906.6448,457.574 905.9813,458.4962 C904.6543,460.3406 903.2213,462.3076 901.69,464.377 C898.6275,468.5156 895.1719,473.0638 891.385,477.86 C876.2375,497.045 855.79,520.2 834,537 C808.03,557.03 787.63,543.73 768,570 C759.7875,580.99 754.285,594.05 750.6559,607.4956 C748.8414,614.2184 747.4952,621.0377 746.5129,627.7427 C746.0217,631.0953 745.6214,634.4193 745.299,637.6884 C745.2789,637.8927 745.2591,638.0969 745.2395,638.3007 " fill="none" id="notifications-q" style="stroke: #A80036; stroke-width: 1.0;"/><polygon fill="#A80036" points="745.2395,638.3007,750.08,629.7235,745.7166,633.3236,742.1165,628.9601,745.2395,638.3007" style="stroke: #A80036; stroke-width: 1.0;"/><polygon fill="#A80036" points="908.7849,454.5615,900.3281,459.6094,905.9024,458.647,906.8649,464.2214,908.7849,454.5615" style="stroke: #A80036; stroke-width: 1.0;"/><!--MD5=[03f735b9cb76a7a8afc169532948c11c]
link notifications to database--><path d="M922.0831,497.9601 C922.1205,498.3684 922.1581,498.7783 922.1958,499.1895 C922.2712,500.012 922.3471,500.8402 922.4235,501.6739 C923.0349,508.3434 923.6784,515.3635 924.3433,522.6175 C925.673,537.1254 927.0884,552.5684 928.5038,568.0113 C929.9191,583.4541 931.3343,598.8966 932.6638,613.4036 C932.9961,617.0304 933.3231,620.5986 933.6435,624.0938 C933.7235,624.9676 933.8032,625.8368 933.8824,626.7013 C933.922,627.1335 933.9615,627.5645 934.0009,627.9943 C934.0206,628.2092 934.0403,628.4238 934.0599,628.638 " fill="none" id="notifications-&gt;database" style="stroke: #A80036; stroke-width: 1.0;"/><polygon fill="#A80036" points="934.0599,628.638,937.2219,619.3105,933.6036,623.6589,929.2552,620.0406,934.0599,628.638" style="stroke: #A80036; stroke-width: 1.0;"/><!--MD5=[781bd68d47981b838755fef56fa9366d]
link android to root_r--><path d="M63.653,488.9319 C63.7055,489.2503 63.759,489.5692 63.8136,489.8884 C64.0322,491.1654 64.2684,492.4488 64.5234,493.7358 C65.5437,498.8841 66.8663,504.0915 68.57,509.1852 C71.9775,519.3725 76.91,529.105 84,537 C153.91,614.85 264.7125,653.975 358.6287,673.6375 C405.5869,683.4688 448.3234,688.4344 479.6161,690.9422 C495.2624,692.1961 508.0478,692.8355 517.0694,693.1615 C519.3248,693.243 521.3449,693.3049 523.1157,693.3519 C523.3371,693.3578 523.5545,693.3635 523.7681,693.3689 " fill="none" id="android-&gt;root_r" style="stroke: #A80036; stroke-width: 1.0;"/><polygon fill="#A80036" points="523.7681,693.3689,514.8725,689.1418,518.7697,693.242,514.6695,697.1392,523.7681,693.3689" style="stroke: #A80036; stroke-width: 1.0;"/><text fill="#000000" font-family="sans-serif" font-size="13" lengthAdjust="spacingAndGlyphs" textLength="33" x="103" y="558.0669">https</text><!--MD5=[db19fc58321093106fa8140024737b2f]
link ios to root_r--><path d="M273.6601,488.9626 C273.6898,489.121 273.7197,489.2795 273.7498,489.4382 C273.81,489.7555 273.8712,490.0734 273.9333,490.3917 C274.0575,491.0284 274.1855,491.6669 274.3173,492.3071 C275.3718,497.4285 276.6735,502.6527 278.2786,507.8252 C281.4888,518.17 285.9125,528.3075 292,537 C300.985,549.835 359.265,587.9475 416.1388,623.3463 C444.5756,641.0456 472.6609,658.0666 494.057,670.9102 C504.7551,677.332 513.7808,682.7094 520.3421,686.6052 C521.1622,687.0921 521.9439,687.556 522.6854,687.9958 C523.0562,688.2157 523.417,688.4296 523.7676,688.6374 " fill="none" id="ios-&gt;root_r" style="stroke: #A80036; stroke-width: 1.0;"/><polygon fill="#A80036" points="523.7676,688.6374,518.065,680.6074,519.4664,686.0879,513.9859,687.4893,523.7676,688.6374" style="stroke: #A80036; stroke-width: 1.0;"/><text fill="#000000" font-family="sans-serif" font-size="13" lengthAdjust="spacingAndGlyphs" textLength="33" x="320" y="558.0669">https</text><!--MD5=[a5b8a5486ccf5025d1b15b4cf377c750]
@startuml deployment



skinparam nodesep 40
skinparam ranksep 25

node Server {
    frame "docker-compose" {

        rectangle "root router" as root_r {
            component "nginx" as root {

            }
        }

         rectangle frontend {
            
            component "nginx" as n2 {

            }

            folder static {

            }
        }

        together group1 {
            

        rectangle backend {
            component api_server [fastapi 
            application]
        }

       rectangle "blob storage" as blob {
            database minio
        }

        
        }
        
        together group2 {
            rectangle "queue" as q {
            queue "rabbitmq" as queue {

            }
        }

        rectangle database {
            database postgres
        }

        
        }

        rectangle notifications {
            component ns [Notifications
            Service]
        }        
    }
}


together device_group {
    node Android as android {
    component Chrome {

    }
}

node IOS as ios {
    component Safari {

    }
}

}




root_r -l-> backend : /api
root_r -d-> frontend : /index.html


blob <- - - root_r : /media


backend - -> database
backend <- -> q

blob <- - backend 

notifications <- -> q
notifications - -> database

android - -> root_r : https

ios - -> root_r : https



@enduml

PlantUML version 1.2020.02(Sun Mar 01 10:22:07 GMT 2020)
(GPL source distribution)
Java Runtime: OpenJDK Runtime Environment
JVM: OpenJDK 64-Bit Server VM
Java Version: 11.0.9+11-Ubuntu-0ubuntu1
Operating System: Linux
Default Encoding: ANSI_X3.4-1968
Language: en
Country: US
--></g></svg>