<?xml version="1.0" encoding="UTF-8" standalone="no"?><svg xmlns="http://www.w3.org/2000/svg" xmlns:xlink="http://www.w3.org/1999/xlink" contentScriptType="application/ecmascript" contentStyleType="text/css" height="700px" preserveAspectRatio="none" style="width:873px;height:700px;" version="1.1" viewBox="0 0 873 700" width="873px" zoomAndPan="magnify"><defs><filter height="300%" id="f7s32ct8dcf9n" width="300%" x="-1" y="-1"><feGaussianBlur result="blurOut" stdDeviation="2.0"/><feColorMatrix in="blurOut" result="blurOut2" type="matrix" values="0 0 0 0 0 0 0 0 0 0 0 0 0 0 0 0 0 0 .4 0"/><feOffset dx="4.0" dy="4.0" in="blurOut2" result="blurOut3"/><feBlend in="SourceGraphic" in2="blurOut3" mode="normal"/></filter></defs><g><!--MD5=[a60570e4b426f702ccbb0d459e3b9417]
cluster models--><polygon fill="#FFFFFF" filter="url(#f7s32ct8dcf9n)" points="60,459,123,459,130,481.2969,363.5,481.2969,363.5,688,60,688,60,459" style="stroke: #000000; stroke-width: 1.5;"/><line style="stroke: #000000; stroke-width: 1.5;" x1="60" x2="130" y1="481.2969" y2="481.2969"/><text fill="#000000" font-family="sans-serif" font-size="14" font-weight="bold" lengthAdjust="spacingAndGlyphs" textLength="57" x="64" y="473.9951">models</text><!--MD5=[8e3352d1df8de79dfe88814080b2ef0b]
cluster usecases--><polygon fill="#FFFFFF" filter="url(#f7s32ct8dcf9n)" points="42.5,206,123.5,206,130.5,228.2969,570,228.2969,570,435,42.5,435,42.5,206" style="stroke: #000000; stroke-width: 1.5;"/><line style="stroke: #000000; stroke-width: 1.5;" x1="42.5" x2="130.5" y1="228.2969" y2="228.2969"/><text fill="#000000" font-family="sans-serif" font-size="14" font-weight="bold" lengthAdjust="spacingAndGlyphs" textLength="75" x="46.5" y="220.9951">usecases</text><!--MD5=[96f760269fc4f42dc47a24738b17ae1e]
cluster repositories--><polygon fill="#FFFFFF" filter="url(#f7s32ct8dcf9n)" points="427,459,529,459,536,481.2969,839,481.2969,839,688,427,688,427,459" style="stroke: #000000; stroke-width: 1.5;"/><line style="stroke: #000000; stroke-width: 1.5;" x1="427" x2="536" y1="481.2969" y2="481.2969"/><text fill="#000000" font-family="sans-serif" font-size="14" font-weight="bold" lengthAdjust="spacingAndGlyphs" textLength="96" x="431" y="473.9951">repositories</text><!--MD5=[2bc534311b38a7f7508092f91511a69f]
cluster external--><polygon fill="#FFFFFF" filter="url(#f7s32ct8dcf9n)" points="22,60,93,60,100,82.2969,213,82.2969,213,147,22,147,22,60" style="stroke: #000000; stroke-width: 1.5;"/><line style="stroke: #000000; stroke-width: 1.5;" x1="22" x2="100" y1="82.2969" y2="82.2969"/><text fill="#000000" font-family="sans-serif" font-size="14" font-weight="bold" lengthAdjust="spacingAndGlyphs" textLength="65" x="26" y="74.9951">external</text><!--MD5=[cf58d37b78f149325f79356613ff3b39]
cluster impl--><polygon fill="#FFFFFF" filter="url(#f7s32ct8dcf9n)" points="418,24,456,24,463,46.2969,851,46.2969,851,182,418,182,418,24" style="stroke: #000000; stroke-width: 1.5;"/><line style="stroke: #000000; stroke-width: 1.5;" x1="418" x2="463" y1="46.2969" y2="46.2969"/><text fill="#000000" font-family="sans-serif" font-size="14" font-weight="bold" lengthAdjust="spacingAndGlyphs" textLength="32" x="422" y="38.9951">impl</text><!--MD5=[fee662a292a0353a69bd162820bae93b]
entity User--><polygon fill="#FEFECE" filter="url(#f7s32ct8dcf9n)" points="91.5,636,91.5,672.2969,143.5,672.2969,143.5,646,133.5,636,91.5,636" style="stroke: #000000; stroke-width: 1.5;"/><path d="M133.5,636 L133.5,646 L143.5,646 " fill="#FEFECE" style="stroke: #000000; stroke-width: 1.5;"/><text fill="#000000" font-family="sans-serif" font-size="14" lengthAdjust="spacingAndGlyphs" textLength="32" x="101.5" y="658.9951">User</text><!--MD5=[75a7e46195dadf59d3eecf9589a74e68]
entity Media--><polygon fill="#FEFECE" filter="url(#f7s32ct8dcf9n)" points="87,565,87,601.2969,148,601.2969,148,575,138,565,87,565" style="stroke: #000000; stroke-width: 1.5;"/><path d="M138,565 L138,575 L148,575 " fill="#FEFECE" style="stroke: #000000; stroke-width: 1.5;"/><text fill="#000000" font-family="sans-serif" font-size="14" lengthAdjust="spacingAndGlyphs" textLength="41" x="97" y="587.9951">Media</text><!--MD5=[4045eb211beef465bc78b3f0cdb8dfec]
entity Message--><polygon fill="#FEFECE" filter="url(#f7s32ct8dcf9n)" points="76,494,76,530.2969,159,530.2969,159,504,149,494,76,494" style="stroke: #000000; stroke-width: 1.5;"/><path d="M149,494 L149,504 L159,504 " fill="#FEFECE" style="stroke: #000000; stroke-width: 1.5;"/><text fill="#000000" font-family="sans-serif" font-size="14" lengthAdjust="spacingAndGlyphs" textLength="63" x="86" y="516.9951">Message</text><!--MD5=[03533c03823b9c7d7ea29d35f87e1f5b]
entity Rating--><polygon fill="#FEFECE" filter="url(#f7s32ct8dcf9n)" points="283.5,636,283.5,672.2969,347.5,672.2969,347.5,646,337.5,636,283.5,636" style="stroke: #000000; stroke-width: 1.5;"/><path d="M337.5,636 L337.5,646 L347.5,646 " fill="#FEFECE" style="stroke: #000000; stroke-width: 1.5;"/><text fill="#000000" font-family="sans-serif" font-size="14" lengthAdjust="spacingAndGlyphs" textLength="44" x="293.5" y="658.9951">Rating</text><!--MD5=[8e1cdbe6992de2efd24a2fd0f81317b2]
entity Chat--><polygon fill="#FEFECE" filter="url(#f7s32ct8dcf9n)" points="289.5,565,289.5,601.2969,341.5,601.2969,341.5,575,331.5,565,289.5,565" style="stroke: #000000; stroke-width: 1.5;"/><path d="M331.5,565 L331.5,575 L341.5,575 " fill="#FEFECE" style="stroke: #000000; stroke-width: 1.5;"/><text fill="#000000" font-family="sans-serif" font-size="14" lengthAdjust="spacingAndGlyphs" textLength="32" x="299.5" y="587.9951">Chat</text><!--MD5=[c9e2905c2b70fa8404785988b580c9b3]
entity register_user--><polygon fill="#FEFECE" filter="url(#f7s32ct8dcf9n)" points="62,383,62,419.2969,173,419.2969,173,393,163,383,62,383" style="stroke: #000000; stroke-width: 1.5;"/><path d="M163,383 L163,393 L173,393 " fill="#FEFECE" style="stroke: #000000; stroke-width: 1.5;"/><text fill="#000000" font-family="sans-serif" font-size="14" lengthAdjust="spacingAndGlyphs" textLength="91" x="72" y="405.9951">register_user</text><!--MD5=[af981485d9ee2b6d84720674029a7486]
entity get_user--><polygon fill="#FEFECE" filter="url(#f7s32ct8dcf9n)" points="77,312,77,348.2969,158,348.2969,158,322,148,312,77,312" style="stroke: #000000; stroke-width: 1.5;"/><path d="M148,312 L148,322 L158,322 " fill="#FEFECE" style="stroke: #000000; stroke-width: 1.5;"/><text fill="#000000" font-family="sans-serif" font-size="14" lengthAdjust="spacingAndGlyphs" textLength="61" x="87" y="334.9951">get_user</text><!--MD5=[2db925ba4a44d5a5622a442c3b26ec01]
entity update_profile--><polygon fill="#FEFECE" filter="url(#f7s32ct8dcf9n)" points="58.5,241,58.5,277.2969,176.5,277.2969,176.5,251,166.5,241,58.5,241" style="stroke: #000000; stroke-width: 1.5;"/><path d="M166.5,241 L166.5,251 L176.5,251 " fill="#FEFECE" style="stroke: #000000; stroke-width: 1.5;"/><text fill="#000000" font-family="sans-serif" font-size="14" lengthAdjust="spacingAndGlyphs" textLength="98" x="68.5" y="263.9951">update_profile</text><!--MD5=[ab06c6a73e38038f7ecc27d188fb5699]
entity update_avatar--><polygon fill="#FEFECE" filter="url(#f7s32ct8dcf9n)" points="257,383,257,419.2969,374,419.2969,374,393,364,383,257,383" style="stroke: #000000; stroke-width: 1.5;"/><path d="M364,383 L364,393 L374,393 " fill="#FEFECE" style="stroke: #000000; stroke-width: 1.5;"/><text fill="#000000" font-family="sans-serif" font-size="14" lengthAdjust="spacingAndGlyphs" textLength="97" x="267" y="405.9951">update_avatar</text><!--MD5=[755c92ec7f526e7d0cf32bd57e5c7410]
entity friends--><polygon fill="#FEFECE" filter="url(#f7s32ct8dcf9n)" points="282,312,282,348.2969,349,348.2969,349,322,339,312,282,312" style="stroke: #000000; stroke-width: 1.5;"/><path d="M339,312 L339,322 L349,322 " fill="#FEFECE" style="stroke: #000000; stroke-width: 1.5;"/><text fill="#000000" font-family="sans-serif" font-size="14" lengthAdjust="spacingAndGlyphs" textLength="47" x="292" y="334.9951">friends</text><!--MD5=[8fc623d9bc0b7fb282528448fb318e5a]
entity ratings--><polygon fill="#FEFECE" filter="url(#f7s32ct8dcf9n)" points="282,241,282,277.2969,349,277.2969,349,251,339,241,282,241" style="stroke: #000000; stroke-width: 1.5;"/><path d="M339,241 L339,251 L349,251 " fill="#FEFECE" style="stroke: #000000; stroke-width: 1.5;"/><text fill="#000000" font-family="sans-serif" font-size="14" lengthAdjust="spacingAndGlyphs" textLength="47" x="292" y="263.9951">ratings</text><!--MD5=[1e482b188424a9f8a27ad2a6b943826f]
entity chats--><polygon fill="#FEFECE" filter="url(#f7s32ct8dcf9n)" points="496,383,496,419.2969,554,419.2969,554,393,544,383,496,383" style="stroke: #000000; stroke-width: 1.5;"/><path d="M544,383 L544,393 L554,393 " fill="#FEFECE" style="stroke: #000000; stroke-width: 1.5;"/><text fill="#000000" font-family="sans-serif" font-size="14" lengthAdjust="spacingAndGlyphs" textLength="38" x="506" y="405.9951">chats</text><!--MD5=[5ba4736a18d860e8d46ee6758ae30046]
entity user_repository--><polygon fill="#FEFECE" filter="url(#f7s32ct8dcf9n)" points="461.5,636,461.5,672.2969,588.5,672.2969,588.5,646,578.5,636,461.5,636" style="stroke: #000000; stroke-width: 1.5;"/><path d="M578.5,636 L578.5,646 L588.5,646 " fill="#FEFECE" style="stroke: #000000; stroke-width: 1.5;"/><text fill="#000000" font-family="sans-serif" font-size="14" lengthAdjust="spacingAndGlyphs" textLength="107" x="471.5" y="658.9951">user_repository</text><!--MD5=[dab519cc066082868050e582ada6d9a5]
entity media_repository--><polygon fill="#FEFECE" filter="url(#f7s32ct8dcf9n)" points="456,565,456,601.2969,594,601.2969,594,575,584,565,456,565" style="stroke: #000000; stroke-width: 1.5;"/><path d="M584,565 L584,575 L594,575 " fill="#FEFECE" style="stroke: #000000; stroke-width: 1.5;"/><text fill="#000000" font-family="sans-serif" font-size="14" lengthAdjust="spacingAndGlyphs" textLength="118" x="466" y="587.9951">media_repository</text><!--MD5=[26511fc875a2261b403069b9c12d0c4e]
entity friendship_repository--><polygon fill="#FEFECE" filter="url(#f7s32ct8dcf9n)" points="443,494,443,530.2969,607,530.2969,607,504,597,494,443,494" style="stroke: #000000; stroke-width: 1.5;"/><path d="M597,494 L597,504 L607,504 " fill="#FEFECE" style="stroke: #000000; stroke-width: 1.5;"/><text fill="#000000" font-family="sans-serif" font-size="14" lengthAdjust="spacingAndGlyphs" textLength="144" x="453" y="516.9951">friendship_repository</text><!--MD5=[ba74ccf95e838965070400191304a503]
entity rating_repository--><polygon fill="#FEFECE" filter="url(#f7s32ct8dcf9n)" points="688,636,688,672.2969,823,672.2969,823,646,813,636,688,636" style="stroke: #000000; stroke-width: 1.5;"/><path d="M813,636 L813,646 L823,646 " fill="#FEFECE" style="stroke: #000000; stroke-width: 1.5;"/><text fill="#000000" font-family="sans-serif" font-size="14" lengthAdjust="spacingAndGlyphs" textLength="115" x="698" y="658.9951">rating_repository</text><!--MD5=[b1c46f591409dc1da8034a9565737aa3]
entity chat_repository--><polygon fill="#FEFECE" filter="url(#f7s32ct8dcf9n)" points="692.5,565,692.5,601.2969,818.5,601.2969,818.5,575,808.5,565,692.5,565" style="stroke: #000000; stroke-width: 1.5;"/><path d="M808.5,565 L808.5,575 L818.5,575 " fill="#FEFECE" style="stroke: #000000; stroke-width: 1.5;"/><text fill="#000000" font-family="sans-serif" font-size="14" lengthAdjust="spacingAndGlyphs" textLength="106" x="702.5" y="587.9951">chat_repository</text><!--MD5=[a677c2b6f20a20c027fba5649dc271ee]
entity notifications_service--><polygon fill="#FEFECE" filter="url(#f7s32ct8dcf9n)" points="38,95,38,131.2969,197,131.2969,197,105,187,95,38,95" style="stroke: #000000; stroke-width: 1.5;"/><path d="M187,95 L187,105 L197,105 " fill="#FEFECE" style="stroke: #000000; stroke-width: 1.5;"/><text fill="#000000" font-family="sans-serif" font-size="14" lengthAdjust="spacingAndGlyphs" textLength="139" x="48" y="117.9951">notifications_service</text><!--MD5=[04ded7a5d58e3cc403ff8ea503331126]
entity postgres_repo_impl--><polygon fill="#FEFECE" filter="url(#f7s32ct8dcf9n)" points="447,130,447,166.2969,603,166.2969,603,140,593,130,447,130" style="stroke: #000000; stroke-width: 1.5;"/><path d="M593,130 L593,140 L603,140 " fill="#FEFECE" style="stroke: #000000; stroke-width: 1.5;"/><text fill="#000000" font-family="sans-serif" font-size="14" lengthAdjust="spacingAndGlyphs" textLength="136" x="457" y="152.9951">postgres_repo_impl</text><!--MD5=[0f63f2ce72de9fe6120d9c83e5b956ba]
entity minio_media_repository--><polygon fill="#FEFECE" filter="url(#f7s32ct8dcf9n)" points="434,59,434,95.2969,616,95.2969,616,69,606,59,434,59" style="stroke: #000000; stroke-width: 1.5;"/><path d="M606,59 L606,69 L616,69 " fill="#FEFECE" style="stroke: #000000; stroke-width: 1.5;"/><text fill="#000000" font-family="sans-serif" font-size="14" lengthAdjust="spacingAndGlyphs" textLength="162" x="444" y="81.9951">minio_media_repository</text><!--MD5=[53427eeab06bcf1ac76be6c1fdb21628]
entity NotificationsServiceImpl--><polygon fill="#FEFECE" filter="url(#f7s32ct8dcf9n)" points="676,130,676,166.2969,835,166.2969,835,140,825,130,676,130" style="stroke: #000000; stroke-width: 1.5;"/><path d="M825,130 L825,140 L835,140 " fill="#FEFECE" style="stroke: #000000; stroke-width: 1.5;"/><text fill="#000000" font-family="sans-serif" font-size="14" lengthAdjust="spacingAndGlyphs" textLength="139" x="686" y="152.9951">notifications_service</text><!--MD5=[478f285255d4ca4880442b35c8107bbf]
link User to Media--><!--MD5=[7ad8ae3df20a4e78cdb87c7e185186ee]
link Media to Message--><!--MD5=[6ffaeddf716681d54321ecac38e62c49]
link User to Rating--><!--MD5=[19e7bac6e6f5e291e851d0cd52c685a6]
link Rating to Chat--><!--MD5=[9c1a86f29a03f18798b20c0b924f302f]
link register_user to get_user--><!--MD5=[f26b32272e483fb28f6c6d698f645906]
link get_user to update_profile--><!--MD5=[a9a60adf86869d914a39f46620ec95cb]
link register_user to update_avatar--><!--MD5=[15071be7b95c6fc7089abb29d0e2d38e]
link update_avatar to friends--><!--MD5=[ed0e02826063dacc0ed0b0d38e198959]
link friends to ratings--><!--MD5=[0bb621cecc989ccbb7a60cb29334d965]
link update_avatar to chats--><!--MD5=[099f31a64a1f3d53c0d5bcf4510bfe61]
link user_repository to media_repository--><!--MD5=[e4d9569eb09528307a9b89eb626eb7ec]
link media_repository to friendship_repository--><!--MD5=[99cb47e8e29d912ece266ce39467ce34]
link user_repository to rating_repository--><!--MD5=[5d4dada6cbd4614c8de597fdf893f6d5]
link rating_repository to chat_repository--><!--MD5=[b832905f12b3cd3fff5b311fb77dd1b2]
link postgres_repo_impl to minio_media_repository--><!--MD5=[2f6ba4e76f7f1ed8c096a19ffaac0d0e]
link postgres_repo_impl to NotificationsServiceImpl--><!--MD5=[2a16dd47acf4a7ef7917539c542ec7f5]
link Message to register_user--><!--MD5=[743a597b27363a330066238848568521]
link Rating to user_repository--><!--MD5=[181bc67c3c742146d34d990726d58791]
link friendship_repository to postgres_repo_impl--><!--MD5=[ec323e2ced9dab1a2201307e5eff16a0]
@startuml packages

left to right direction

folder models {
    file User
    file Media
    file Message
    file Rating
    file Chat
}

folder usecases {
    file register_user
    file get_user
    file update_profile
    file update_avatar
    file friends
    file ratings
    file chats
}

folder repositories {
    file user_repository
    file media_repository
    file friendship_repository
    file rating_repository
    file chat_repository
}

folder external {
    file notifications_service
}

folder impl {
    file postgres_repo_impl
    file minio_media_repository
    file "notifications_service" as NotificationsServiceImpl
}

@enduml

PlantUML version 1.2020.02(Sun Mar 01 10:22:07 GMT 2020)
(GPL source distribution)
Java Runtime: OpenJDK Runtime Environment
JVM: OpenJDK 64-Bit Server VM
Java Version: 11.0.9+11-Ubuntu-0ubuntu1
Operating System: Linux
Default Encoding: ANSI_X3.4-1968
Language: en
Country: US
--></g></svg>