<?xml version="1.0" encoding="UTF-8" standalone="no"?><svg xmlns="http://www.w3.org/2000/svg" xmlns:xlink="http://www.w3.org/1999/xlink" contentScriptType="application/ecmascript" contentStyleType="text/css" height="247px" preserveAspectRatio="none" style="width:84px;height:247px;" version="1.1" viewBox="0 0 84 247" width="84px" zoomAndPan="magnify"><defs><filter height="300%" id="f1tzp1cxhu473v" width="300%" x="-1" y="-1"><feGaussianBlur result="blurOut" stdDeviation="2.0"/><feColorMatrix in="blurOut" result="blurOut2" type="matrix" values="0 0 0 0 0 0 0 0 0 0 0 0 0 0 0 0 0 0 .4 0"/><feOffset dx="4.0" dy="4.0" in="blurOut2" result="blurOut3"/><feBlend in="SourceGraphic" in2="blurOut3" mode="normal"/></filter></defs><g><ellipse cx="39.5" cy="18" fill="#000000" filter="url(#f1tzp1cxhu473v)" rx="10" ry="10" style="stroke: none; stroke-width: 1.0;"/><rect fill="#FEFECE" filter="url(#f1tzp1cxhu473v)" height="33.9688" rx="12.5" ry="12.5" style="stroke: #A80036; stroke-width: 1.5;" width="67" x="6" y="68"/><text fill="#000000" font-family="sans-serif" font-size="12" lengthAdjust="spacingAndGlyphs" textLength="47" x="16" y="89.1387">Action1</text><rect fill="#FEFECE" filter="url(#f1tzp1cxhu473v)" height="33.9688" rx="12.5" ry="12.5" style="stroke: #A80036; stroke-width: 1.5;" width="67" x="6" y="142"/><text fill="#000000" font-family="sans-serif" font-size="12" lengthAdjust="spacingAndGlyphs" textLength="47" x="16" y="163.1387">Action2</text><ellipse cx="39.5" cy="226" fill="none" filter="url(#f1tzp1cxhu473v)" rx="10" ry="10" style="stroke: #000000; stroke-width: 1.0;"/><ellipse cx="40" cy="226.5" fill="#000000" rx="6" ry="6" style="stroke: none; stroke-width: 1.0;"/><!--MD5=[f66868f90c62218ef0e24df6ab67ca51]
link start to Action1--><path d="M39.5,28.04 C39.5,36.93 39.5,50.84 39.5,62.57 " fill="none" id="start-&gt;Action1" style="stroke: #A80036; stroke-width: 1.0;"/><polygon fill="#A80036" points="39.5,67.78,43.5,58.78,39.5,62.78,35.5,58.78,39.5,67.78" style="stroke: #A80036; stroke-width: 1.0;"/><!--MD5=[c30d33009c8c0500e8414c10eb8a9017]
link Action1 to Action2--><path d="M39.5,102.34 C39.5,112.46 39.5,125.58 39.5,136.54 " fill="none" id="Action1-&gt;Action2" style="stroke: #A80036; stroke-width: 1.0;"/><polygon fill="#A80036" points="39.5,141.73,43.5,132.73,39.5,136.73,35.5,132.73,39.5,141.73" style="stroke: #A80036; stroke-width: 1.0;"/><!--MD5=[110563f43da75a9eaf23d1f0f07ba863]
link Action2 to end--><path d="M39.5,176.07 C39.5,186.6 39.5,200.25 39.5,210.46 " fill="none" id="Action2-&gt;end" style="stroke: #A80036; stroke-width: 1.0;"/><polygon fill="#A80036" points="39.5,215.74,43.5,206.74,39.5,210.74,35.5,206.74,39.5,215.74" style="stroke: #A80036; stroke-width: 1.0;"/><!--MD5=[bb0b69bc448c7762033a5ecea7c897d2]
@startuml sample_diagram

(*) - -> Action1

Action1 - -> Action2

Action2 - -> (*)

@enduml

PlantUML version 1.2020.02(Sun Mar 01 10:22:07 GMT 2020)
(GPL source distribution)
Java Runtime: OpenJDK Runtime Environment
JVM: OpenJDK 64-Bit Server VM
Java Version: 11.0.9+11-Ubuntu-0ubuntu1
Operating System: Linux
Default Encoding: ANSI_X3.4-1968
Language: en
Country: US
--></g></svg>